<?xml version="1.0" encoding="utf-8"?>
<!-- Generator: Adobe Illustrator 28.1.0, SVG Export Plug-In . SVG Version: 6.00 Build 0)  -->
<svg version="1.1" id="Layer_1" xmlns="http://www.w3.org/2000/svg" xmlns:xlink="http://www.w3.org/1999/xlink" x="0px" y="0px"
	 viewBox="0 0 800 800" style="enable-background:new 0 0 800 800;" xml:space="preserve">
<style type="text/css">
	.st0{fill:#FC8A10;}
	.st1{fill:#0D9AA2;}
	.st2{fill:#FFFFFF;}
	.st3{fill:#9F9F9F;}
	.st4{fill:#717171;}
	.st5{fill:#F2F9F9;}
	.st6{fill:#F7F7F5;}
</style>
<g>
	<g>
		<g>
			<polygon class="st1" points="674.06,127.82 514.84,366.37 491.94,332.22 583.46,195.83 549.44,195.83 474.93,306.84 
				455.1,277.31 452.02,272.74 549.33,127.82 			"/>
			<polygon class="st1" points="675,672.18 549.44,672.18 452.15,527.28 455.23,522.69 459.95,515.6 475.01,493.03 549.59,604.19 
				583.61,604.19 492.02,467.59 514.9,433.42 			"/>
		</g>
	</g>
	<g>
		<path class="st0" d="M503.68,399.69L431.99,292.8l-46.75-69.63L295.13,88.95H151.62l90,134.22l118.57,176.75l0.1,0.13
			l-124.7,186.77l-82.91,124.23h142.55l136.89-203.88v-0.13l71.69-107.12L503.68,399.69z M295.05,633.33h-38.87l156.61-233.52
			L256.36,166.67h38.87L354.5,255l97.23,144.82L295.05,633.33z"/>
		<path class="st2" d="M455.23,522.69l4.72-7.04v-0.05L455.23,522.69z"/>
	</g>
	<g>
		<polygon class="st0" points="288.77,399.96 255.43,449.77 191.79,544.63 125.5,544.63 222.04,400.02 221.98,399.96 125,255.36 
			191.73,255.36 288.71,399.85 		"/>
	</g>
	<polygon class="st1" points="574.01,400 635.22,491.7 593.19,491.7 531.7,399.97 531.75,399.9 593.24,308.3 635.53,308.3 
		574.04,399.97 	"/>
</g>
</svg>
