<?xml version="1.0" encoding="utf-8"?>
<!-- Generator: Adobe Illustrator 28.1.0, SVG Export Plug-In . SVG Version: 6.00 Build 0)  -->
<svg version="1.1" id="Layer_1" xmlns="http://www.w3.org/2000/svg" xmlns:xlink="http://www.w3.org/1999/xlink" x="0px" y="0px"
	 viewBox="0 0 1569.71 800" style="enable-background:new 0 0 1569.71 800;" xml:space="preserve">
<style type="text/css">
	.st0{fill:#FC8A10;}
	.st1{fill:#0D9AA2;}
	.st2{fill:#FFFFFF;}
	.st3{fill:#9F9F9F;}
	.st4{fill:#717171;}
	.st5{fill:#F2F9F9;}
	.st6{fill:#F7F7F5;}
</style>
<g>
	<g>
		<path class="st0" d="M708.73,246.59V193H550.72v224.74h57.05v-77.1h94.39v-53.59h-94.39v-40.45H708.73z"/>
		<path class="st0" d="M841.52,190.24c-66.75,0-113.76,48.39-113.76,115.13c0,66.75,47.01,115.13,113.76,115.13
			c66.73,0,113.06-48.39,113.06-115.13C954.59,238.62,908.25,190.24,841.52,190.24z M841.52,363.45c-33.89,0-56.71-24.2-56.71-58.08
			c0-33.88,22.81-58.08,56.71-58.08c33.88,0,55.99,24.2,55.99,58.08C897.51,339.25,875.4,363.45,841.52,363.45z"/>
		<path class="st0" d="M1094.27,190.24c-66.73,0-113.76,48.39-113.76,115.13c0,66.75,47.03,115.13,113.76,115.13
			c66.73,0,113.06-48.39,113.06-115.13C1207.34,238.62,1161,190.24,1094.27,190.24z M1094.27,363.45
			c-33.88,0-56.71-24.2-56.71-58.08c0-33.88,22.83-58.08,56.71-58.08c33.89,0,56.01,24.2,56.01,58.08
			C1150.28,339.25,1128.17,363.45,1094.27,363.45z"/>
		<path class="st0" d="M1324.56,193h-87.83v224.74h87.83c65.68,0,110.3-45.62,110.3-112.37C1434.86,238.62,1390.24,193,1324.56,193z
			 M1324.56,362.43h-30.78V248.32h30.78c8.98,0,52.9,3.46,53.24,57.05C1378.15,359.29,1333.54,362.43,1324.56,362.43z"/>
	</g>
	<g>
		<path class="st1" d="M626.82,571.59c-22.67,0-37.93-16.18-37.93-38.85c0-22.67,15.26-38.85,37.93-38.85
			c13.64,0,24.74,7.64,30.29,15.03l30.54-22.9c-12.95-18.74-34.23-30.31-60.83-30.31c-44.65,0-76.11,32.38-76.11,77.03
			c0,44.65,31.46,77.03,76.11,77.03c26.6,0,47.88-11.57,60.83-30.29l-30.54-23.84C651.57,562.58,640.47,571.59,626.82,571.59z"/>
		<path class="st1" d="M795.69,457.57v56.65h-52.51v-56.65h-38.16v150.35h38.16v-56.67h52.51v56.67h38.18V457.57H795.69z"/>
		<path class="st1" d="M939.36,457.57h-28.92l-60.38,150.35h40.47l6.49-16.67h55.75l6.47,16.67h40.47L939.36,457.57z M910.2,556.56
			l14.58-37.93l14.58,37.93H910.2z"/>
		<path class="st1" d="M1101.98,457.57v82.11l-51.36-82.11h-37.01v150.35h38.18v-81.9l51.35,81.9h37.01V457.57H1101.98z"/>
		<path class="st1" d="M1234.76,519.09v34.7h30.31c-4.18,12.72-17.35,17.8-28,17.8c-22.67,0-37.93-16.18-37.93-38.85
			c0-22.67,15.26-38.85,37.93-38.85c10.18,0,21.98,3.69,30.07,14.81l30.76-22.92c-12.95-18.5-34.23-30.07-60.83-30.07
			c-44.65,0-76.11,32.38-76.11,77.03c0,44.65,31.46,77.03,76.11,77.03c43.48,0,70.56-30.76,72.17-73.55v-17.12H1234.76z"/>
		<path class="st1" d="M1434.86,492.26v-34.7h-104.78v150.35h104.78v-34.7h-66.62v-23.14H1430v-34.7h-61.77v-23.12H1434.86z"/>
	</g>
	<g>
		<g>
			<g>
				<polygon class="st1" points="501.06,218.93 394.87,378.03 379.59,355.26 440.63,264.29 417.94,264.29 368.24,338.33 
					355.02,318.63 352.97,315.58 417.87,218.93 				"/>
				<polygon class="st1" points="501.68,581.99 417.94,581.99 353.05,485.36 355.11,482.29 358.26,477.56 368.3,462.51 
					418.04,536.65 440.73,536.65 379.64,445.54 394.9,422.75 				"/>
			</g>
		</g>
		<g>
			<path class="st0" d="M387.42,400.25l-47.81-71.29l-31.18-46.44L248.32,193h-95.72l60.03,89.52l79.08,117.88l0.07,0.09
				l-83.17,124.57l-55.3,82.86h95.07l91.3-135.98v-0.09l47.81-71.44L387.42,400.25z M248.27,556.09h-25.93L326.8,400.34
				l-104.33-155.5h25.93l39.53,58.92l64.85,96.59L248.27,556.09z"/>
			<path class="st2" d="M355.11,482.29l3.15-4.7v-0.03L355.11,482.29z"/>
		</g>
		<g>
			<polygon class="st0" points="244.08,400.44 221.85,433.66 179.4,496.92 135.19,496.92 199.58,400.47 199.54,400.44 
				134.86,303.99 179.36,303.99 244.05,400.36 			"/>
		</g>
		<polygon class="st1" points="434.33,400.46 475.15,461.62 447.12,461.62 406.11,400.44 406.14,400.39 447.15,339.3 475.36,339.3 
			434.35,400.44 		"/>
	</g>
</g>
</svg>
